<svg id="visual" viewBox="0 0 960 300" width="960" height="300" xmlns="http://www.w3.org/2000/svg" xmlns:xlink="http://www.w3.org/1999/xlink" version="1.1"><rect x="0" y="0" width="960" height="300" fill="#202731"></rect><path d="M0 65L16 65C32 65 64 65 96 66.8C128 68.7 160 72.3 192 76.5C224 80.7 256 85.3 288 91.3C320 97.3 352 104.7 384 108.7C416 112.7 448 113.3 480 110.7C512 108 544 102 576 103.7C608 105.3 640 114.7 672 117.8C704 121 736 118 768 114C800 110 832 105 864 98C896 91 928 82 944 77.5L960 73L960 301L944 301C928 301 896 301 864 301C832 301 800 301 768 301C736 301 704 301 672 301C640 301 608 301 576 301C544 301 512 301 480 301C448 301 416 301 384 301C352 301 320 301 288 301C256 301 224 301 192 301C160 301 128 301 96 301C64 301 32 301 16 301L0 301Z" fill="#001122"></path><path d="M0 128L16 130.7C32 133.3 64 138.7 96 145.5C128 152.3 160 160.7 192 165.3C224 170 256 171 288 169C320 167 352 162 384 153.5C416 145 448 133 480 130.7C512 128.3 544 135.7 576 139.7C608 143.7 640 144.3 672 147.8C704 151.3 736 157.7 768 156.5C800 155.3 832 146.7 864 146.8C896 147 928 156 944 160.5L960 165L960 301L944 301C928 301 896 301 864 301C832 301 800 301 768 301C736 301 704 301 672 301C640 301 608 301 576 301C544 301 512 301 480 301C448 301 416 301 384 301C352 301 320 301 288 301C256 301 224 301 192 301C160 301 128 301 96 301C64 301 32 301 16 301L0 301Z" fill="#311e45"></path><path d="M0 197L16 194.8C32 192.7 64 188.3 96 185.7C128 183 160 182 192 181.5C224 181 256 181 288 184C320 187 352 193 384 199.8C416 206.7 448 214.3 480 218.3C512 222.3 544 222.7 576 219.3C608 216 640 209 672 200.7C704 192.3 736 182.7 768 183.5C800 184.3 832 195.7 864 197.8C896 200 928 193 944 189.5L960 186L960 301L944 301C928 301 896 301 864 301C832 301 800 301 768 301C736 301 704 301 672 301C640 301 608 301 576 301C544 301 512 301 480 301C448 301 416 301 384 301C352 301 320 301 288 301C256 301 224 301 192 301C160 301 128 301 96 301C64 301 32 301 16 301L0 301Z" fill="#741b49"></path><path d="M0 233L16 232C32 231 64 229 96 227.7C128 226.3 160 225.7 192 226.5C224 227.3 256 229.7 288 236.8C320 244 352 256 384 260.2C416 264.3 448 260.7 480 257.7C512 254.7 544 252.3 576 254C608 255.7 640 261.3 672 263.7C704 266 736 265 768 262.2C800 259.3 832 254.7 864 250.2C896 245.7 928 241.3 944 239.2L960 237L960 301L944 301C928 301 896 301 864 301C832 301 800 301 768 301C736 301 704 301 672 301C640 301 608 301 576 301C544 301 512 301 480 301C448 301 416 301 384 301C352 301 320 301 288 301C256 301 224 301 192 301C160 301 128 301 96 301C64 301 32 301 16 301L0 301Z" fill="#a32e27"></path></svg>