<svg id="visual" viewBox="0 0 1200 100" width="1200" height="100" xmlns="http://www.w3.org/2000/svg" xmlns:xlink="http://www.w3.org/1999/xlink" version="1.1"><path d="M0 33L10.5 36.7C21 40.3 42 47.7 63 47.3C84 47 105 39 126 38.7C147 38.3 168 45.7 189.2 50.3C210.3 55 231.7 57 252.8 56C274 55 295 51 316 49.5C337 48 358 49 379 49.5C400 50 421 50 442 52.5C463 55 484 60 505 61.5C526 63 547 61 568.2 60.3C589.3 59.7 610.7 60.3 631.8 55.3C653 50.3 674 39.7 695 37C716 34.3 737 39.7 758 41.2C779 42.7 800 40.3 821 40.5C842 40.7 863 43.3 884 43.7C905 44 926 42 947.2 41.7C968.3 41.3 989.7 42.7 1010.8 45.2C1032 47.7 1053 51.3 1074 52.5C1095 53.7 1116 52.3 1137 48.5C1158 44.7 1179 38.3 1189.5 35.2L1200 32L1200 101L1189.5 101C1179 101 1158 101 1137 101C1116 101 1095 101 1074 101C1053 101 1032 101 1010.8 101C989.7 101 968.3 101 947.2 101C926 101 905 101 884 101C863 101 842 101 821 101C800 101 779 101 758 101C737 101 716 101 695 101C674 101 653 101 631.8 101C610.7 101 589.3 101 568.2 101C547 101 526 101 505 101C484 101 463 101 442 101C421 101 400 101 379 101C358 101 337 101 316 101C295 101 274 101 252.8 101C231.7 101 210.3 101 189.2 101C168 101 147 101 126 101C105 101 84 101 63 101C42 101 21 101 10.5 101L0 101Z" fill="#9f0062" stroke-linecap="round" stroke-linejoin="miter"></path></svg>