<svg id="visual" viewBox="0 0 1200 100" width="1200" height="100" xmlns="http://www.w3.org/2000/svg" xmlns:xlink="http://www.w3.org/1999/xlink" version="1.1"><path d="M0 49L10.5 49.5C21 50 42 51 63 50.5C84 50 105 48 126 50C147 52 168 58 189.2 59.3C210.3 60.7 231.7 57.3 252.8 55.3C274 53.3 295 52.7 316 54C337 55.3 358 58.7 379 60.3C400 62 421 62 442 60.5C463 59 484 56 505 55.2C526 54.3 547 55.7 568.2 52.5C589.3 49.3 610.7 41.7 631.8 41.7C653 41.7 674 49.3 695 54.8C716 60.3 737 63.7 758 61.3C779 59 800 51 821 48.2C842 45.3 863 47.7 884 50.3C905 53 926 56 947.2 52.8C968.3 49.7 989.7 40.3 1010.8 38.2C1032 36 1053 41 1074 47C1095 53 1116 60 1137 63.5C1158 67 1179 67 1189.5 67L1200 67L1200 101L1189.5 101C1179 101 1158 101 1137 101C1116 101 1095 101 1074 101C1053 101 1032 101 1010.8 101C989.7 101 968.3 101 947.2 101C926 101 905 101 884 101C863 101 842 101 821 101C800 101 779 101 758 101C737 101 716 101 695 101C674 101 653 101 631.8 101C610.7 101 589.3 101 568.2 101C547 101 526 101 505 101C484 101 463 101 442 101C421 101 400 101 379 101C358 101 337 101 316 101C295 101 274 101 252.8 101C231.7 101 210.3 101 189.2 101C168 101 147 101 126 101C105 101 84 101 63 101C42 101 21 101 10.5 101L0 101Z" fill="#820086" stroke-linecap="round" stroke-linejoin="miter"></path></svg>