<svg id="visual" viewBox="0 0 1200 100" width="1200" height="100" xmlns="http://www.w3.org/2000/svg" xmlns:xlink="http://www.w3.org/1999/xlink" version="1.1"><path d="M0 54L10.5 52.8C21 51.7 42 49.3 63 45.3C84 41.3 105 35.7 126 33.8C147 32 168 34 189.2 35.8C210.3 37.7 231.7 39.3 252.8 39.5C274 39.7 295 38.3 316 37C337 35.7 358 34.3 379 36.3C400 38.3 421 43.7 442 49C463 54.3 484 59.7 505 57C526 54.3 547 43.7 568.2 40C589.3 36.3 610.7 39.7 631.8 43.8C653 48 674 53 695 57.2C716 61.3 737 64.7 758 63.8C779 63 800 58 821 52.2C842 46.3 863 39.7 884 36.3C905 33 926 33 947.2 35.5C968.3 38 989.7 43 1010.8 48C1032 53 1053 58 1074 54.8C1095 51.7 1116 40.3 1137 35.2C1158 30 1179 31 1189.5 31.5L1200 32L1200 101L1189.5 101C1179 101 1158 101 1137 101C1116 101 1095 101 1074 101C1053 101 1032 101 1010.8 101C989.7 101 968.3 101 947.2 101C926 101 905 101 884 101C863 101 842 101 821 101C800 101 779 101 758 101C737 101 716 101 695 101C674 101 653 101 631.8 101C610.7 101 589.3 101 568.2 101C547 101 526 101 505 101C484 101 463 101 442 101C421 101 400 101 379 101C358 101 337 101 316 101C295 101 274 101 252.8 101C231.7 101 210.3 101 189.2 101C168 101 147 101 126 101C105 101 84 101 63 101C42 101 21 101 10.5 101L0 101Z" fill="#a71143" stroke-linecap="round" stroke-linejoin="miter"></path></svg>