<svg id="visual" viewBox="0 0 960 540" width="960" height="540" xmlns="http://www.w3.org/2000/svg" xmlns:xlink="http://www.w3.org/1999/xlink" version="1.1"><rect width="960" height="540" fill="#13181f"></rect><g><g transform="translate(893 351)"><path d="M0 -44.8L26.3 -36.3L42.6 -13.9L42.6 13.9L26.3 36.3L0 44.8L-26.3 36.3L-42.6 13.9L-42.6 -13.9L-26.3 -36.3Z" fill="#2a6d8c"></path></g><g transform="translate(271 159)"><path d="M0 -22L12.9 -17.8L20.9 -6.8L20.9 6.8L12.9 17.8L0 22L-12.9 17.8L-20.9 6.8L-20.9 -6.8L-12.9 -17.8Z" fill="#2a6d8c"></path></g><g transform="translate(927 267)"><path d="M0 -29L17 -23.5L27.6 -9L27.6 9L17 23.5L0 29L-17 23.5L-27.6 9L-27.6 -9L-17 -23.5Z" fill="#2a6d8c"></path></g><g transform="translate(113 487)"><path d="M0 -35L20.6 -28.3L33.3 -10.8L33.3 10.8L20.6 28.3L0 35L-20.6 28.3L-33.3 10.8L-33.3 -10.8L-20.6 -28.3Z" fill="#2a6d8c"></path></g><g transform="translate(807 164)"><path d="M0 -30L17.6 -24.3L28.5 -9.3L28.5 9.3L17.6 24.3L0 30L-17.6 24.3L-28.5 9.3L-28.5 -9.3L-17.6 -24.3Z" fill="#2a6d8c"></path></g><g transform="translate(72 90)"><path d="M0 -26L15.3 -21L24.7 -8L24.7 8L15.3 21L0 26L-15.3 21L-24.7 8L-24.7 -8L-15.3 -21Z" fill="#2a6d8c"></path></g><g transform="translate(778 62)"><path d="M0 -24L14.1 -19.4L22.8 -7.4L22.8 7.4L14.1 19.4L0 24L-14.1 19.4L-22.8 7.4L-22.8 -7.4L-14.1 -19.4Z" fill="#2a6d8c"></path></g><g transform="translate(321 302)"><path d="M0 -17L10 -13.8L16.2 -5.3L16.2 5.3L10 13.8L0 17L-10 13.8L-16.2 5.3L-16.2 -5.3L-10 -13.8Z" fill="#2a6d8c"></path></g><g transform="translate(522 262)"><path d="M0 -35L20.6 -28.3L33.3 -10.8L33.3 10.8L20.6 28.3L0 35L-20.6 28.3L-33.3 10.8L-33.3 -10.8L-20.6 -28.3Z" fill="#2a6d8c"></path></g><g transform="translate(176 210)"><path d="M0 -22L12.9 -17.8L20.9 -6.8L20.9 6.8L12.9 17.8L0 22L-12.9 17.8L-20.9 6.8L-20.9 -6.8L-12.9 -17.8Z" fill="#2a6d8c"></path></g></g></svg>