<svg id="visual" viewBox="0 0 1200 100" width="1200" height="100" xmlns="http://www.w3.org/2000/svg" xmlns:xlink="http://www.w3.org/1999/xlink" version="1.1"><path d="M0 38L10.5 40C21 42 42 46 63 49.8C84 53.7 105 57.3 126 56.3C147 55.3 168 49.7 189.2 48.3C210.3 47 231.7 50 252.8 47.7C274 45.3 295 37.7 316 36.2C337 34.7 358 39.3 379 40.5C400 41.7 421 39.3 442 41.3C463 43.3 484 49.7 505 49C526 48.3 547 40.7 568.2 37.5C589.3 34.3 610.7 35.7 631.8 36C653 36.3 674 35.7 695 39.2C716 42.7 737 50.3 758 51C779 51.7 800 45.3 821 42.7C842 40 863 41 884 39.5C905 38 926 34 947.2 37.7C968.3 41.3 989.7 52.7 1010.8 54.8C1032 57 1053 50 1074 44.7C1095 39.3 1116 35.7 1137 36.3C1158 37 1179 42 1189.5 44.5L1200 47L1200 101L1189.5 101C1179 101 1158 101 1137 101C1116 101 1095 101 1074 101C1053 101 1032 101 1010.8 101C989.7 101 968.3 101 947.2 101C926 101 905 101 884 101C863 101 842 101 821 101C800 101 779 101 758 101C737 101 716 101 695 101C674 101 653 101 631.8 101C610.7 101 589.3 101 568.2 101C547 101 526 101 505 101C484 101 463 101 442 101C421 101 400 101 379 101C358 101 337 101 316 101C295 101 274 101 252.8 101C231.7 101 210.3 101 189.2 101C168 101 147 101 126 101C105 101 84 101 63 101C42 101 21 101 10.5 101L0 101Z" fill="#1a283b" stroke-linecap="round" stroke-linejoin="miter"></path></svg>