<svg id="visual" viewBox="0 0 1200 100" width="1200" height="100" xmlns="http://www.w3.org/2000/svg" xmlns:xlink="http://www.w3.org/1999/xlink" version="1.1"><path d="M0 40L10.5 38.5C21 37 42 34 63 35.7C84 37.3 105 43.7 126 44.3C147 45 168 40 189.2 37.2C210.3 34.3 231.7 33.7 252.8 38C274 42.3 295 51.7 316 54.5C337 57.3 358 53.7 379 50.2C400 46.7 421 43.3 442 45.7C463 48 484 56 505 58C526 60 547 56 568.2 54.3C589.3 52.7 610.7 53.3 631.8 50.2C653 47 674 40 695 42.2C716 44.3 737 55.7 758 59.2C779 62.7 800 58.3 821 57.5C842 56.7 863 59.3 884 61.7C905 64 926 66 947.2 65.7C968.3 65.3 989.7 62.7 1010.8 59.3C1032 56 1053 52 1074 49.7C1095 47.3 1116 46.7 1137 45.5C1158 44.3 1179 42.7 1189.5 41.8L1200 41L1200 101L1189.5 101C1179 101 1158 101 1137 101C1116 101 1095 101 1074 101C1053 101 1032 101 1010.8 101C989.7 101 968.3 101 947.2 101C926 101 905 101 884 101C863 101 842 101 821 101C800 101 779 101 758 101C737 101 716 101 695 101C674 101 653 101 631.8 101C610.7 101 589.3 101 568.2 101C547 101 526 101 505 101C484 101 463 101 442 101C421 101 400 101 379 101C358 101 337 101 316 101C295 101 274 101 252.8 101C231.7 101 210.3 101 189.2 101C168 101 147 101 126 101C105 101 84 101 63 101C42 101 21 101 10.5 101L0 101Z" fill="#245586" stroke-linecap="round" stroke-linejoin="miter"></path></svg>