<svg id="visual" viewBox="0 0 1200 100" width="1200" height="100" xmlns="http://www.w3.org/2000/svg" xmlns:xlink="http://www.w3.org/1999/xlink" version="1.1"><path d="M0 62L10.5 61C21 60 42 58 63 58.3C84 58.7 105 61.3 126 62.5C147 63.7 168 63.3 189.2 60C210.3 56.7 231.7 50.3 252.8 47.2C274 44 295 44 316 47C337 50 358 56 379 55.8C400 55.7 421 49.3 442 49.5C463 49.7 484 56.3 505 57.5C526 58.7 547 54.3 568.2 50.8C589.3 47.3 610.7 44.7 631.8 42.8C653 41 674 40 695 41.7C716 43.3 737 47.7 758 50.5C779 53.3 800 54.7 821 53.3C842 52 863 48 884 49.2C905 50.3 926 56.7 947.2 60.3C968.3 64 989.7 65 1010.8 63.8C1032 62.7 1053 59.3 1074 59.8C1095 60.3 1116 64.7 1137 66.2C1158 67.7 1179 66.3 1189.5 65.7L1200 65L1200 101L1189.5 101C1179 101 1158 101 1137 101C1116 101 1095 101 1074 101C1053 101 1032 101 1010.8 101C989.7 101 968.3 101 947.2 101C926 101 905 101 884 101C863 101 842 101 821 101C800 101 779 101 758 101C737 101 716 101 695 101C674 101 653 101 631.8 101C610.7 101 589.3 101 568.2 101C547 101 526 101 505 101C484 101 463 101 442 101C421 101 400 101 379 101C358 101 337 101 316 101C295 101 274 101 252.8 101C231.7 101 210.3 101 189.2 101C168 101 147 101 126 101C105 101 84 101 63 101C42 101 21 101 10.5 101L0 101Z" fill="#10141a" stroke-linecap="round" stroke-linejoin="miter"></path></svg>