<svg id="visual" viewBox="0 0 1200 100" width="1200" height="100" xmlns="http://www.w3.org/2000/svg" xmlns:xlink="http://www.w3.org/1999/xlink" version="1.1"><path d="M0 41L7.3 43.8C14.7 46.7 29.3 52.3 44.2 53C59 53.7 74 49.3 88.8 47.7C103.7 46 118.3 47 133.2 44.7C148 42.3 163 36.7 177.8 34C192.7 31.3 207.3 31.7 222.2 34.5C237 37.3 252 42.7 266.8 44.2C281.7 45.7 296.3 43.3 311.2 43.5C326 43.7 341 46.3 355.8 45.2C370.7 44 385.3 39 400 42C414.7 45 429.3 56 444.2 57.3C459 58.7 474 50.3 488.8 50.2C503.7 50 518.3 58 533.2 58.5C548 59 563 52 577.8 49.7C592.7 47.3 607.3 49.7 622.2 47.8C637 46 652 40 666.8 36.8C681.7 33.7 696.3 33.3 711.2 37.3C726 41.3 741 49.7 755.8 55.7C770.7 61.7 785.3 65.3 800 63.3C814.7 61.3 829.3 53.7 844.2 49.8C859 46 874 46 888.8 46.5C903.7 47 918.3 48 933.2 49.7C948 51.3 963 53.7 977.8 53.3C992.7 53 1007.3 50 1022.2 46.2C1037 42.3 1052 37.7 1066.8 39.7C1081.7 41.7 1096.3 50.3 1111.2 53.8C1126 57.3 1141 55.7 1155.8 54.3C1170.7 53 1185.3 52 1192.7 51.5L1200 51L1200 101L1192.7 101C1185.3 101 1170.7 101 1155.8 101C1141 101 1126 101 1111.2 101C1096.3 101 1081.7 101 1066.8 101C1052 101 1037 101 1022.2 101C1007.3 101 992.7 101 977.8 101C963 101 948 101 933.2 101C918.3 101 903.7 101 888.8 101C874 101 859 101 844.2 101C829.3 101 814.7 101 800 101C785.3 101 770.7 101 755.8 101C741 101 726 101 711.2 101C696.3 101 681.7 101 666.8 101C652 101 637 101 622.2 101C607.3 101 592.7 101 577.8 101C563 101 548 101 533.2 101C518.3 101 503.7 101 488.8 101C474 101 459 101 444.2 101C429.3 101 414.7 101 400 101C385.3 101 370.7 101 355.8 101C341 101 326 101 311.2 101C296.3 101 281.7 101 266.8 101C252 101 237 101 222.2 101C207.3 101 192.7 101 177.8 101C163 101 148 101 133.2 101C118.3 101 103.7 101 88.8 101C74 101 59 101 44.2 101C29.3 101 14.7 101 7.3 101L0 101Z" fill="#764fec69" stroke-linecap="round" stroke-linejoin="miter"></path></svg>