<svg id="visual" viewBox="0 0 1200 100" width="1200" height="100" xmlns="http://www.w3.org/2000/svg" xmlns:xlink="http://www.w3.org/1999/xlink" version="1.1"><path d="M0 42L7.3 45C14.7 48 29.3 54 44.2 52.7C59 51.3 74 42.7 88.8 40.3C103.7 38 118.3 42 133.2 46.8C148 51.7 163 57.3 177.8 56.5C192.7 55.7 207.3 48.3 222.2 48C237 47.7 252 54.3 266.8 58.3C281.7 62.3 296.3 63.7 311.2 60C326 56.3 341 47.7 355.8 44.8C370.7 42 385.3 45 400 44C414.7 43 429.3 38 444.2 40.7C459 43.3 474 53.7 488.8 57C503.7 60.3 518.3 56.7 533.2 57.5C548 58.3 563 63.7 577.8 64.5C592.7 65.3 607.3 61.7 622.2 61C637 60.3 652 62.7 666.8 62.2C681.7 61.7 696.3 58.3 711.2 58.2C726 58 741 61 755.8 61.3C770.7 61.7 785.3 59.3 800 57C814.7 54.7 829.3 52.3 844.2 49.2C859 46 874 42 888.8 39C903.7 36 918.3 34 933.2 36C948 38 963 44 977.8 45.8C992.7 47.7 1007.3 45.3 1022.2 46.7C1037 48 1052 53 1066.8 53.3C1081.7 53.7 1096.3 49.3 1111.2 47.3C1126 45.3 1141 45.7 1155.8 44.3C1170.7 43 1185.3 40 1192.7 38.5L1200 37L1200 101L1192.7 101C1185.3 101 1170.7 101 1155.8 101C1141 101 1126 101 1111.2 101C1096.3 101 1081.7 101 1066.8 101C1052 101 1037 101 1022.2 101C1007.3 101 992.7 101 977.8 101C963 101 948 101 933.2 101C918.3 101 903.7 101 888.8 101C874 101 859 101 844.2 101C829.3 101 814.7 101 800 101C785.3 101 770.7 101 755.8 101C741 101 726 101 711.2 101C696.3 101 681.7 101 666.8 101C652 101 637 101 622.2 101C607.3 101 592.7 101 577.8 101C563 101 548 101 533.2 101C518.3 101 503.7 101 488.8 101C474 101 459 101 444.2 101C429.3 101 414.7 101 400 101C385.3 101 370.7 101 355.8 101C341 101 326 101 311.2 101C296.3 101 281.7 101 266.8 101C252 101 237 101 222.2 101C207.3 101 192.7 101 177.8 101C163 101 148 101 133.2 101C118.3 101 103.7 101 88.8 101C74 101 59 101 44.2 101C29.3 101 14.7 101 7.3 101L0 101Z" fill="#6244dca1" stroke-linecap="round" stroke-linejoin="miter"></path></svg>