<svg id="visual" viewBox="0 0 1200 100" width="1200" height="100" xmlns="http://www.w3.org/2000/svg" xmlns:xlink="http://www.w3.org/1999/xlink" version="1.1"><path d="M0 35L10.5 36.2C21 37.3 42 39.7 63 40.7C84 41.7 105 41.3 126 40C147 38.7 168 36.3 189.2 34.7C210.3 33 231.7 32 252.8 37.7C274 43.3 295 55.7 316 58.3C337 61 358 54 379 53.3C400 52.7 421 58.3 442 61.5C463 64.7 484 65.3 505 61.7C526 58 547 50 568.2 44C589.3 38 610.7 34 631.8 34.2C653 34.3 674 38.7 695 44.7C716 50.7 737 58.3 758 56.8C779 55.3 800 44.7 821 43.3C842 42 863 50 884 50.3C905 50.7 926 43.3 947.2 42.2C968.3 41 989.7 46 1010.8 47.7C1032 49.3 1053 47.7 1074 45.8C1095 44 1116 42 1137 42.7C1158 43.3 1179 46.7 1189.5 48.3L1200 50L1200 101L1189.5 101C1179 101 1158 101 1137 101C1116 101 1095 101 1074 101C1053 101 1032 101 1010.8 101C989.7 101 968.3 101 947.2 101C926 101 905 101 884 101C863 101 842 101 821 101C800 101 779 101 758 101C737 101 716 101 695 101C674 101 653 101 631.8 101C610.7 101 589.3 101 568.2 101C547 101 526 101 505 101C484 101 463 101 442 101C421 101 400 101 379 101C358 101 337 101 316 101C295 101 274 101 252.8 101C231.7 101 210.3 101 189.2 101C168 101 147 101 126 101C105 101 84 101 63 101C42 101 21 101 10.5 101L0 101Z" fill="#a82c59" stroke-linecap="round" stroke-linejoin="miter"></path></svg>