<svg id="visual" viewBox="0 0 1200 100" width="1200" height="100" xmlns="http://www.w3.org/2000/svg" xmlns:xlink="http://www.w3.org/1999/xlink" version="1.1"><path d="M0 52L10.5 52C21 52 42 52 63 51.8C84 51.7 105 51.3 126 53C147 54.7 168 58.3 189.2 59C210.3 59.7 231.7 57.3 252.8 55.7C274 54 295 53 316 48.7C337 44.3 358 36.7 379 36.8C400 37 421 45 442 49.2C463 53.3 484 53.7 505 54.8C526 56 547 58 568.2 60C589.3 62 610.7 64 631.8 59.2C653 54.3 674 42.7 695 37C716 31.3 737 31.7 758 36.5C779 41.3 800 50.7 821 52C842 53.3 863 46.7 884 44.7C905 42.7 926 45.3 947.2 47.5C968.3 49.7 989.7 51.3 1010.8 49.2C1032 47 1053 41 1074 40.2C1095 39.3 1116 43.7 1137 44.2C1158 44.7 1179 41.3 1189.5 39.7L1200 38L1200 101L1189.5 101C1179 101 1158 101 1137 101C1116 101 1095 101 1074 101C1053 101 1032 101 1010.8 101C989.7 101 968.3 101 947.2 101C926 101 905 101 884 101C863 101 842 101 821 101C800 101 779 101 758 101C737 101 716 101 695 101C674 101 653 101 631.8 101C610.7 101 589.3 101 568.2 101C547 101 526 101 505 101C484 101 463 101 442 101C421 101 400 101 379 101C358 101 337 101 316 101C295 101 274 101 252.8 101C231.7 101 210.3 101 189.2 101C168 101 147 101 126 101C105 101 84 101 63 101C42 101 21 101 10.5 101L0 101Z" fill="#954286" stroke-linecap="round" stroke-linejoin="miter"></path></svg>