<svg id="visual" viewBox="0 0 1200 100" width="1200" height="100" xmlns="http://www.w3.org/2000/svg" xmlns:xlink="http://www.w3.org/1999/xlink" version="1.1"><path d="M0 37L10.5 36C21 35 42 33 63 31.8C84 30.7 105 30.3 126 36.3C147 42.3 168 54.7 189.2 58.2C210.3 61.7 231.7 56.3 252.8 51.2C274 46 295 41 316 43.8C337 46.7 358 57.3 379 59.5C400 61.7 421 55.3 442 51C463 46.7 484 44.3 505 43.2C526 42 547 42 568.2 41.7C589.3 41.3 610.7 40.7 631.8 44.8C653 49 674 58 695 60.2C716 62.3 737 57.7 758 52.7C779 47.7 800 42.3 821 43.7C842 45 863 53 884 54.5C905 56 926 51 947.2 48.5C968.3 46 989.7 46 1010.8 46.2C1032 46.3 1053 46.7 1074 49.5C1095 52.3 1116 57.7 1137 56.8C1158 56 1179 49 1189.5 45.5L1200 42L1200 101L1189.5 101C1179 101 1158 101 1137 101C1116 101 1095 101 1074 101C1053 101 1032 101 1010.8 101C989.7 101 968.3 101 947.2 101C926 101 905 101 884 101C863 101 842 101 821 101C800 101 779 101 758 101C737 101 716 101 695 101C674 101 653 101 631.8 101C610.7 101 589.3 101 568.2 101C547 101 526 101 505 101C484 101 463 101 442 101C421 101 400 101 379 101C358 101 337 101 316 101C295 101 274 101 252.8 101C231.7 101 210.3 101 189.2 101C168 101 147 101 126 101C105 101 84 101 63 101C42 101 21 101 10.5 101L0 101Z" fill="#6b5aa5" stroke-linecap="round" stroke-linejoin="miter"></path></svg>