<svg id="wave1_1" viewBox="0 0 960 300" width="960" height="300" xmlns="http://www.w3.org/2000/svg" xmlns:xlink="http://www.w3.org/1999/xlink" version="1.1"><path d="M0 104L22.8 105.3C45.7 106.7 91.3 109.3 137 104.8C182.7 100.3 228.3 88.7 274 84.2C319.7 79.7 365.3 82.3 411.2 78.8C457 75.3 503 65.7 548.8 69C594.7 72.3 640.3 88.7 686 91.7C731.7 94.7 777.3 84.3 823 86.5C868.7 88.7 914.3 103.3 937.2 110.7L960 118L960 301L937.2 301C914.3 301 868.7 301 823 301C777.3 301 731.7 301 686 301C640.3 301 594.7 301 548.8 301C503 301 457 301 411.2 301C365.3 301 319.7 301 274 301C228.3 301 182.7 301 137 301C91.3 301 45.7 301 22.8 301L0 301Z" fill="#764fec69"></path><path d="M0 168L22.8 155C45.7 142 91.3 116 137 108.2C182.7 100.3 228.3 110.7 274 119.8C319.7 129 365.3 137 411.2 141.5C457 146 503 147 548.8 143.2C594.7 139.3 640.3 130.7 686 121.8C731.7 113 777.3 104 823 102.3C868.7 100.7 914.3 106.3 937.2 109.2L960 112L960 301L937.2 301C914.3 301 868.7 301 823 301C777.3 301 731.7 301 686 301C640.3 301 594.7 301 548.8 301C503 301 457 301 411.2 301C365.3 301 319.7 301 274 301C228.3 301 182.7 301 137 301C91.3 301 45.7 301 22.8 301L0 301Z" fill="#6244dca1"></path><path d="M0 180L22.8 178.7C45.7 177.3 91.3 174.7 137 178.5C182.7 182.3 228.3 192.7 274 188.5C319.7 184.3 365.3 165.7 411.2 164.7C457 163.7 503 180.3 548.8 188C594.7 195.7 640.3 194.3 686 193.3C731.7 192.3 777.3 191.7 823 191.5C868.7 191.3 914.3 191.7 937.2 191.8L960 192L960 301L937.2 301C914.3 301 868.7 301 823 301C777.3 301 731.7 301 686 301C640.3 301 594.7 301 548.8 301C503 301 457 301 411.2 301C365.3 301 319.7 301 274 301C228.3 301 182.7 301 137 301C91.3 301 45.7 301 22.8 301L0 301Z" fill="#4f39ccaf"></path><path d="M0 214L22.8 214.5C45.7 215 91.3 216 137 214.3C182.7 212.7 228.3 208.3 274 210.7C319.7 213 365.3 222 411.2 227.8C457 233.7 503 236.3 548.8 228C594.7 219.7 640.3 200.3 686 193.2C731.7 186 777.3 191 823 195.5C868.7 200 914.3 204 937.2 206L960 208L960 301L937.2 301C914.3 301 868.7 301 823 301C777.3 301 731.7 301 686 301C640.3 301 594.7 301 548.8 301C503 301 457 301 411.2 301C365.3 301 319.7 301 274 301C228.3 301 182.7 301 137 301C91.3 301 45.7 301 22.8 301L0 301Z" fill="#3a2ebcec"></path><path d="M0 251L22.8 248.8C45.7 246.7 91.3 242.3 137 243.8C182.7 245.3 228.3 252.7 274 257.7C319.7 262.7 365.3 265.3 411.2 265.8C457 266.3 503 264.7 548.8 263.5C594.7 262.3 640.3 261.7 686 261.3C731.7 261 777.3 261 823 259.7C868.7 258.3 914.3 255.7 937.2 254.3L960 253L960 301L937.2 301C914.3 301 868.7 301 823 301C777.3 301 731.7 301 686 301C640.3 301 594.7 301 548.8 301C503 301 457 301 411.2 301C365.3 301 319.7 301 274 301C228.3 301 182.7 301 137 301C91.3 301 45.7 301 22.8 301L0 301Z" fill="#2224ad"></path></svg>