<svg id="visual" viewBox="0 0 960 300" width="960" height="300" xmlns="http://www.w3.org/2000/svg" xmlns:xlink="http://www.w3.org/1999/xlink" version="1.1"><rect x="0" y="0" width="960" height="300" fill="#2224ad"></rect><path d="M0 168L16 164.3C32 160.7 64 153.3 96 153.7C128 154 160 162 192 161.2C224 160.3 256 150.7 288 143.8C320 137 352 133 384 130.8C416 128.7 448 128.3 480 128C512 127.7 544 127.3 576 130.8C608 134.3 640 141.7 672 144.5C704 147.3 736 145.7 768 148.2C800 150.7 832 157.3 864 153.2C896 149 928 134 944 126.5L960 119L960 301L944 301C928 301 896 301 864 301C832 301 800 301 768 301C736 301 704 301 672 301C640 301 608 301 576 301C544 301 512 301 480 301C448 301 416 301 384 301C352 301 320 301 288 301C256 301 224 301 192 301C160 301 128 301 96 301C64 301 32 301 16 301L0 301Z" fill="#001122"></path><path d="M0 174L16 178.2C32 182.3 64 190.7 96 192.2C128 193.7 160 188.3 192 185.3C224 182.3 256 181.7 288 180.5C320 179.3 352 177.7 384 175.3C416 173 448 170 480 167.8C512 165.7 544 164.3 576 166.7C608 169 640 175 672 180C704 185 736 189 768 188.3C800 187.7 832 182.3 864 176.5C896 170.7 928 164.3 944 161.2L960 158L960 301L944 301C928 301 896 301 864 301C832 301 800 301 768 301C736 301 704 301 672 301C640 301 608 301 576 301C544 301 512 301 480 301C448 301 416 301 384 301C352 301 320 301 288 301C256 301 224 301 192 301C160 301 128 301 96 301C64 301 32 301 16 301L0 301Z" fill="#0d1927"></path><path d="M0 207L16 212.5C32 218 64 229 96 234.2C128 239.3 160 238.7 192 238.3C224 238 256 238 288 231.8C320 225.7 352 213.3 384 208.8C416 204.3 448 207.7 480 214.2C512 220.7 544 230.3 576 230.8C608 231.3 640 222.7 672 221.8C704 221 736 228 768 225.8C800 223.7 832 212.3 864 211.3C896 210.3 928 219.7 944 224.3L960 229L960 301L944 301C928 301 896 301 864 301C832 301 800 301 768 301C736 301 704 301 672 301C640 301 608 301 576 301C544 301 512 301 480 301C448 301 416 301 384 301C352 301 320 301 288 301C256 301 224 301 192 301C160 301 128 301 96 301C64 301 32 301 16 301L0 301Z" fill="#17202c"></path><path d="M0 243L16 248.5C32 254 64 265 96 267.5C128 270 160 264 192 263C224 262 256 266 288 263C320 260 352 250 384 250C416 250 448 260 480 260C512 260 544 250 576 244.7C608 239.3 640 238.7 672 241.7C704 244.7 736 251.3 768 254.5C800 257.7 832 257.3 864 256.8C896 256.3 928 255.7 944 255.3L960 255L960 301L944 301C928 301 896 301 864 301C832 301 800 301 768 301C736 301 704 301 672 301C640 301 608 301 576 301C544 301 512 301 480 301C448 301 416 301 384 301C352 301 320 301 288 301C256 301 224 301 192 301C160 301 128 301 96 301C64 301 32 301 16 301L0 301Z" fill="#202731"></path></svg>