<svg id="visual" viewBox="0 0 960 300" width="960" height="300" xmlns="http://www.w3.org/2000/svg" xmlns:xlink="http://www.w3.org/1999/xlink" version="1.1"><rect x="0" y="0" width="960" height="300" fill="#a32e27"></rect><path d="M0 74L17.8 69.5C35.7 65 71.3 56 106.8 69.5C142.3 83 177.7 119 213.2 139.7C248.7 160.3 284.3 165.7 320 165.2C355.7 164.7 391.3 158.3 426.8 143.5C462.3 128.7 497.7 105.3 533.2 98.5C568.7 91.7 604.3 101.3 640 117.2C675.7 133 711.3 155 746.8 153.7C782.3 152.3 817.7 127.7 853.2 105.7C888.7 83.7 924.3 64.3 942.2 54.7L960 45L960 301L942.2 301C924.3 301 888.7 301 853.2 301C817.7 301 782.3 301 746.8 301C711.3 301 675.7 301 640 301C604.3 301 568.7 301 533.2 301C497.7 301 462.3 301 426.8 301C391.3 301 355.7 301 320 301C284.3 301 248.7 301 213.2 301C177.7 301 142.3 301 106.8 301C71.3 301 35.7 301 17.8 301L0 301Z" fill="#ad731a"></path><path d="M0 188L17.8 189.5C35.7 191 71.3 194 106.8 197C142.3 200 177.7 203 213.2 185C248.7 167 284.3 128 320 112C355.7 96 391.3 103 426.8 119.5C462.3 136 497.7 162 533.2 164.2C568.7 166.3 604.3 144.7 640 131.7C675.7 118.7 711.3 114.3 746.8 121.2C782.3 128 817.7 146 853.2 155.5C888.7 165 924.3 166 942.2 166.5L960 167L960 301L942.2 301C924.3 301 888.7 301 853.2 301C817.7 301 782.3 301 746.8 301C711.3 301 675.7 301 640 301C604.3 301 568.7 301 533.2 301C497.7 301 462.3 301 426.8 301C391.3 301 355.7 301 320 301C284.3 301 248.7 301 213.2 301C177.7 301 142.3 301 106.8 301C71.3 301 35.7 301 17.8 301L0 301Z" fill="#948400"></path><path d="M0 180L17.8 187.3C35.7 194.7 71.3 209.3 106.8 212.7C142.3 216 177.7 208 213.2 197C248.7 186 284.3 172 320 171.8C355.7 171.7 391.3 185.3 426.8 185.5C462.3 185.7 497.7 172.3 533.2 169.5C568.7 166.7 604.3 174.3 640 185.7C675.7 197 711.3 212 746.8 212.7C782.3 213.3 817.7 199.7 853.2 197.3C888.7 195 924.3 204 942.2 208.5L960 213L960 301L942.2 301C924.3 301 888.7 301 853.2 301C817.7 301 782.3 301 746.8 301C711.3 301 675.7 301 640 301C604.3 301 568.7 301 533.2 301C497.7 301 462.3 301 426.8 301C391.3 301 355.7 301 320 301C284.3 301 248.7 301 213.2 301C177.7 301 142.3 301 106.8 301C71.3 301 35.7 301 17.8 301L0 301Z" fill="#6e930a"></path><path d="M0 246L17.8 246.8C35.7 247.7 71.3 249.3 106.8 250C142.3 250.7 177.7 250.3 213.2 242.3C248.7 234.3 284.3 218.7 320 220.7C355.7 222.7 391.3 242.3 426.8 246.5C462.3 250.7 497.7 239.3 533.2 237.3C568.7 235.3 604.3 242.7 640 247.3C675.7 252 711.3 254 746.8 255.7C782.3 257.3 817.7 258.7 853.2 253.2C888.7 247.7 924.3 235.3 942.2 229.2L960 223L960 301L942.2 301C924.3 301 888.7 301 853.2 301C817.7 301 782.3 301 746.8 301C711.3 301 675.7 301 640 301C604.3 301 568.7 301 533.2 301C497.7 301 462.3 301 426.8 301C391.3 301 355.7 301 320 301C284.3 301 248.7 301 213.2 301C177.7 301 142.3 301 106.8 301C71.3 301 35.7 301 17.8 301L0 301Z" fill="#27a031"></path></svg>