<svg id="visual" viewBox="0 0 960 300" width="960" height="300" xmlns="http://www.w3.org/2000/svg" xmlns:xlink="http://www.w3.org/1999/xlink" version="1.1"><rect x="0" y="0" width="960" height="300" fill="#27a031"></rect><path d="M0 71L17.8 84.5C35.7 98 71.3 125 106.8 127.3C142.3 129.7 177.7 107.3 213.2 90.7C248.7 74 284.3 63 320 65.2C355.7 67.3 391.3 82.7 426.8 87C462.3 91.3 497.7 84.7 533.2 81.2C568.7 77.7 604.3 77.3 640 76.3C675.7 75.3 711.3 73.7 746.8 86.3C782.3 99 817.7 126 853.2 120C888.7 114 924.3 75 942.2 55.5L960 36L960 301L942.2 301C924.3 301 888.7 301 853.2 301C817.7 301 782.3 301 746.8 301C711.3 301 675.7 301 640 301C604.3 301 568.7 301 533.2 301C497.7 301 462.3 301 426.8 301C391.3 301 355.7 301 320 301C284.3 301 248.7 301 213.2 301C177.7 301 142.3 301 106.8 301C71.3 301 35.7 301 17.8 301L0 301Z" fill="#279577"></path><path d="M0 164L17.8 165.8C35.7 167.7 71.3 171.3 106.8 172.8C142.3 174.3 177.7 173.7 213.2 165.3C248.7 157 284.3 141 320 130C355.7 119 391.3 113 426.8 106.8C462.3 100.7 497.7 94.3 533.2 102.5C568.7 110.7 604.3 133.3 640 137C675.7 140.7 711.3 125.3 746.8 121.2C782.3 117 817.7 124 853.2 121C888.7 118 924.3 105 942.2 98.5L960 92L960 301L942.2 301C924.3 301 888.7 301 853.2 301C817.7 301 782.3 301 746.8 301C711.3 301 675.7 301 640 301C604.3 301 568.7 301 533.2 301C497.7 301 462.3 301 426.8 301C391.3 301 355.7 301 320 301C284.3 301 248.7 301 213.2 301C177.7 301 142.3 301 106.8 301C71.3 301 35.7 301 17.8 301L0 301Z" fill="#008d9a"></path><path d="M0 204L17.8 208.2C35.7 212.3 71.3 220.7 106.8 215.3C142.3 210 177.7 191 213.2 192.7C248.7 194.3 284.3 216.7 320 226C355.7 235.3 391.3 231.7 426.8 224.5C462.3 217.3 497.7 206.7 533.2 208.5C568.7 210.3 604.3 224.7 640 224.5C675.7 224.3 711.3 209.7 746.8 203.5C782.3 197.3 817.7 199.7 853.2 202C888.7 204.3 924.3 206.7 942.2 207.8L960 209L960 301L942.2 301C924.3 301 888.7 301 853.2 301C817.7 301 782.3 301 746.8 301C711.3 301 675.7 301 640 301C604.3 301 568.7 301 533.2 301C497.7 301 462.3 301 426.8 301C391.3 301 355.7 301 320 301C284.3 301 248.7 301 213.2 301C177.7 301 142.3 301 106.8 301C71.3 301 35.7 301 17.8 301L0 301Z" fill="#0080aa"></path><path d="M0 242L17.8 247.5C35.7 253 71.3 264 106.8 269.5C142.3 275 177.7 275 213.2 275.5C248.7 276 284.3 277 320 277.5C355.7 278 391.3 278 426.8 271.8C462.3 265.7 497.7 253.3 533.2 248C568.7 242.7 604.3 244.3 640 251C675.7 257.7 711.3 269.3 746.8 267.2C782.3 265 817.7 249 853.2 236.3C888.7 223.7 924.3 214.3 942.2 209.7L960 205L960 301L942.2 301C924.3 301 888.7 301 853.2 301C817.7 301 782.3 301 746.8 301C711.3 301 675.7 301 640 301C604.3 301 568.7 301 533.2 301C497.7 301 462.3 301 426.8 301C391.3 301 355.7 301 320 301C284.3 301 248.7 301 213.2 301C177.7 301 142.3 301 106.8 301C71.3 301 35.7 301 17.8 301L0 301Z" fill="#276daf"></path></svg>