<svg id="visual" viewBox="0 0 960 300" width="960" height="300" xmlns="http://www.w3.org/2000/svg" xmlns:xlink="http://www.w3.org/1999/xlink" version="1.1"><rect x="0" y="0" width="960" height="300" fill="#276daf"></rect><path d="M0 147L17.8 146.8C35.7 146.7 71.3 146.3 106.8 133C142.3 119.7 177.7 93.3 213.2 95C248.7 96.7 284.3 126.3 320 138.7C355.7 151 391.3 146 426.8 139.5C462.3 133 497.7 125 533.2 118C568.7 111 604.3 105 640 104.7C675.7 104.3 711.3 109.7 746.8 120.5C782.3 131.3 817.7 147.7 853.2 143C888.7 138.3 924.3 112.7 942.2 99.8L960 87L960 301L942.2 301C924.3 301 888.7 301 853.2 301C817.7 301 782.3 301 746.8 301C711.3 301 675.7 301 640 301C604.3 301 568.7 301 533.2 301C497.7 301 462.3 301 426.8 301C391.3 301 355.7 301 320 301C284.3 301 248.7 301 213.2 301C177.7 301 142.3 301 106.8 301C71.3 301 35.7 301 17.8 301L0 301Z" fill="#204970"></path><path d="M0 117L17.8 113.8C35.7 110.7 71.3 104.3 106.8 112.5C142.3 120.7 177.7 143.3 213.2 161.2C248.7 179 284.3 192 320 189.8C355.7 187.7 391.3 170.3 426.8 163.7C462.3 157 497.7 161 533.2 157C568.7 153 604.3 141 640 138C675.7 135 711.3 141 746.8 146.3C782.3 151.7 817.7 156.3 853.2 163.3C888.7 170.3 924.3 179.7 942.2 184.3L960 189L960 301L942.2 301C924.3 301 888.7 301 853.2 301C817.7 301 782.3 301 746.8 301C711.3 301 675.7 301 640 301C604.3 301 568.7 301 533.2 301C497.7 301 462.3 301 426.8 301C391.3 301 355.7 301 320 301C284.3 301 248.7 301 213.2 301C177.7 301 142.3 301 106.8 301C71.3 301 35.7 301 17.8 301L0 301Z" fill="#1d3652"></path><path d="M0 218L17.8 210.2C35.7 202.3 71.3 186.7 106.8 185.7C142.3 184.7 177.7 198.3 213.2 194.5C248.7 190.7 284.3 169.3 320 159.8C355.7 150.3 391.3 152.7 426.8 154C462.3 155.3 497.7 155.7 533.2 163.7C568.7 171.7 604.3 187.3 640 187.8C675.7 188.3 711.3 173.7 746.8 170.5C782.3 167.3 817.7 175.7 853.2 178.3C888.7 181 924.3 178 942.2 176.5L960 175L960 301L942.2 301C924.3 301 888.7 301 853.2 301C817.7 301 782.3 301 746.8 301C711.3 301 675.7 301 640 301C604.3 301 568.7 301 533.2 301C497.7 301 462.3 301 426.8 301C391.3 301 355.7 301 320 301C284.3 301 248.7 301 213.2 301C177.7 301 142.3 301 106.8 301C71.3 301 35.7 301 17.8 301L0 301Z" fill="#182435"></path><path d="M0 235L17.8 237C35.7 239 71.3 243 106.8 237.8C142.3 232.7 177.7 218.3 213.2 219.8C248.7 221.3 284.3 238.7 320 247.2C355.7 255.7 391.3 255.3 426.8 245.8C462.3 236.3 497.7 217.7 533.2 220.8C568.7 224 604.3 249 640 258.2C675.7 267.3 711.3 260.7 746.8 249.2C782.3 237.7 817.7 221.3 853.2 214.2C888.7 207 924.3 209 942.2 210L960 211L960 301L942.2 301C924.3 301 888.7 301 853.2 301C817.7 301 782.3 301 746.8 301C711.3 301 675.7 301 640 301C604.3 301 568.7 301 533.2 301C497.7 301 462.3 301 426.8 301C391.3 301 355.7 301 320 301C284.3 301 248.7 301 213.2 301C177.7 301 142.3 301 106.8 301C71.3 301 35.7 301 17.8 301L0 301Z" fill="#10141a"></path></svg>