<svg id="visual" viewBox="0 0 1200 100" width="1200" height="100" xmlns="http://www.w3.org/2000/svg" xmlns:xlink="http://www.w3.org/1999/xlink" version="1.1"><path d="M0 61L10.5 58.5C21 56 42 51 63 47.2C84 43.3 105 40.7 126 41.3C147 42 168 46 189.2 46C210.3 46 231.7 42 252.8 44.7C274 47.3 295 56.7 316 56.3C337 56 358 46 379 45.3C400 44.7 421 53.3 442 53.3C463 53.3 484 44.7 505 39.7C526 34.7 547 33.3 568.2 38.5C589.3 43.7 610.7 55.3 631.8 59.2C653 63 674 59 695 53C716 47 737 39 758 38.3C779 37.7 800 44.3 821 45C842 45.7 863 40.3 884 42.7C905 45 926 55 947.2 58.3C968.3 61.7 989.7 58.3 1010.8 56.2C1032 54 1053 53 1074 55.3C1095 57.7 1116 63.3 1137 59.7C1158 56 1179 43 1189.5 36.5L1200 30L1200 101L1189.5 101C1179 101 1158 101 1137 101C1116 101 1095 101 1074 101C1053 101 1032 101 1010.8 101C989.7 101 968.3 101 947.2 101C926 101 905 101 884 101C863 101 842 101 821 101C800 101 779 101 758 101C737 101 716 101 695 101C674 101 653 101 631.8 101C610.7 101 589.3 101 568.2 101C547 101 526 101 505 101C484 101 463 101 442 101C421 101 400 101 379 101C358 101 337 101 316 101C295 101 274 101 252.8 101C231.7 101 210.3 101 189.2 101C168 101 147 101 126 101C105 101 84 101 63 101C42 101 21 101 10.5 101L0 101Z" fill="#a32e27" stroke-linecap="round" stroke-linejoin="miter"></path></svg>