<svg id="visual" viewBox="0 0 1200 100" width="1200" height="100" xmlns="http://www.w3.org/2000/svg" xmlns:xlink="http://www.w3.org/1999/xlink" version="1.1"><path d="M0 68L10.5 68.2C21 68.3 42 68.7 63 62.3C84 56 105 43 126 37.7C147 32.3 168 34.7 189.2 40.7C210.3 46.7 231.7 56.3 252.8 56.5C274 56.7 295 47.3 316 46.3C337 45.3 358 52.7 379 53.5C400 54.3 421 48.7 442 46.5C463 44.3 484 45.7 505 48.7C526 51.7 547 56.3 568.2 59.5C589.3 62.7 610.7 64.3 631.8 65C653 65.7 674 65.3 695 65C716 64.7 737 64.3 758 63.7C779 63 800 62 821 58.7C842 55.3 863 49.7 884 49C905 48.3 926 52.7 947.2 55.7C968.3 58.7 989.7 60.3 1010.8 56.2C1032 52 1053 42 1074 42.2C1095 42.3 1116 52.7 1137 54.3C1158 56 1179 49 1189.5 45.5L1200 42L1200 101L1189.5 101C1179 101 1158 101 1137 101C1116 101 1095 101 1074 101C1053 101 1032 101 1010.8 101C989.7 101 968.3 101 947.2 101C926 101 905 101 884 101C863 101 842 101 821 101C800 101 779 101 758 101C737 101 716 101 695 101C674 101 653 101 631.8 101C610.7 101 589.3 101 568.2 101C547 101 526 101 505 101C484 101 463 101 442 101C421 101 400 101 379 101C358 101 337 101 316 101C295 101 274 101 252.8 101C231.7 101 210.3 101 189.2 101C168 101 147 101 126 101C105 101 84 101 63 101C42 101 21 101 10.5 101L0 101Z" fill="#203e5f" stroke-linecap="round" stroke-linejoin="miter"></path></svg>