<svg id="visual" viewBox="0 0 1200 100" width="1200" height="100" xmlns="http://www.w3.org/2000/svg" xmlns:xlink="http://www.w3.org/1999/xlink" version="1.1"><path d="M0 60L7.3 60.5C14.7 61 29.3 62 44.2 57.7C59 53.3 74 43.7 88.8 44C103.7 44.3 118.3 54.7 133.2 54C148 53.3 163 41.7 177.8 37.3C192.7 33 207.3 36 222.2 39.3C237 42.7 252 46.3 266.8 47.8C281.7 49.3 296.3 48.7 311.2 48C326 47.3 341 46.7 355.8 46.7C370.7 46.7 385.3 47.3 400 45C414.7 42.7 429.3 37.3 444.2 40.5C459 43.7 474 55.3 488.8 57.5C503.7 59.7 518.3 52.3 533.2 51.7C548 51 563 57 577.8 57.3C592.7 57.7 607.3 52.3 622.2 52.2C637 52 652 57 666.8 58.7C681.7 60.3 696.3 58.7 711.2 54.2C726 49.7 741 42.3 755.8 41.5C770.7 40.7 785.3 46.3 800 51.3C814.7 56.3 829.3 60.7 844.2 57.3C859 54 874 43 888.8 39.8C903.7 36.7 918.3 41.3 933.2 42.3C948 43.3 963 40.7 977.8 38.3C992.7 36 1007.3 34 1022.2 32.8C1037 31.7 1052 31.3 1066.8 31C1081.7 30.7 1096.3 30.3 1111.2 33.2C1126 36 1141 42 1155.8 45.2C1170.7 48.3 1185.3 48.7 1192.7 48.8L1200 49L1200 101L1192.7 101C1185.3 101 1170.7 101 1155.8 101C1141 101 1126 101 1111.2 101C1096.3 101 1081.7 101 1066.8 101C1052 101 1037 101 1022.2 101C1007.3 101 992.7 101 977.8 101C963 101 948 101 933.2 101C918.3 101 903.7 101 888.8 101C874 101 859 101 844.2 101C829.3 101 814.7 101 800 101C785.3 101 770.7 101 755.8 101C741 101 726 101 711.2 101C696.3 101 681.7 101 666.8 101C652 101 637 101 622.2 101C607.3 101 592.7 101 577.8 101C563 101 548 101 533.2 101C518.3 101 503.7 101 488.8 101C474 101 459 101 444.2 101C429.3 101 414.7 101 400 101C385.3 101 370.7 101 355.8 101C341 101 326 101 311.2 101C296.3 101 281.7 101 266.8 101C252 101 237 101 222.2 101C207.3 101 192.7 101 177.8 101C163 101 148 101 133.2 101C118.3 101 103.7 101 88.8 101C74 101 59 101 44.2 101C29.3 101 14.7 101 7.3 101L0 101Z" fill="#3a2ebcec" stroke-linecap="round" stroke-linejoin="miter"></path></svg>