<svg id="visual" viewBox="0 0 1200 100" width="1200" height="100" xmlns="http://www.w3.org/2000/svg" xmlns:xlink="http://www.w3.org/1999/xlink" version="1.1"><path d="M0 66L7.3 63.3C14.7 60.7 29.3 55.3 44.2 50.5C59 45.7 74 41.3 88.8 42C103.7 42.7 118.3 48.3 133.2 48C148 47.7 163 41.3 177.8 37.5C192.7 33.7 207.3 32.3 222.2 33.8C237 35.3 252 39.7 266.8 45.2C281.7 50.7 296.3 57.3 311.2 57.7C326 58 341 52 355.8 48.2C370.7 44.3 385.3 42.7 400 41.7C414.7 40.7 429.3 40.3 444.2 39.8C459 39.3 474 38.7 488.8 39.3C503.7 40 518.3 42 533.2 47.2C548 52.3 563 60.7 577.8 58.5C592.7 56.3 607.3 43.7 622.2 41.5C637 39.3 652 47.7 666.8 49.8C681.7 52 696.3 48 711.2 45.2C726 42.3 741 40.7 755.8 42C770.7 43.3 785.3 47.7 800 51.3C814.7 55 829.3 58 844.2 58.7C859 59.3 874 57.7 888.8 58.5C903.7 59.3 918.3 62.7 933.2 61.3C948 60 963 54 977.8 48.3C992.7 42.7 1007.3 37.3 1022.2 39.3C1037 41.3 1052 50.7 1066.8 54.5C1081.7 58.3 1096.3 56.7 1111.2 53.2C1126 49.7 1141 44.3 1155.8 43.5C1170.7 42.7 1185.3 46.3 1192.7 48.2L1200 50L1200 101L1192.7 101C1185.3 101 1170.7 101 1155.8 101C1141 101 1126 101 1111.2 101C1096.3 101 1081.7 101 1066.8 101C1052 101 1037 101 1022.2 101C1007.3 101 992.7 101 977.8 101C963 101 948 101 933.2 101C918.3 101 903.7 101 888.8 101C874 101 859 101 844.2 101C829.3 101 814.7 101 800 101C785.3 101 770.7 101 755.8 101C741 101 726 101 711.2 101C696.3 101 681.7 101 666.8 101C652 101 637 101 622.2 101C607.3 101 592.7 101 577.8 101C563 101 548 101 533.2 101C518.3 101 503.7 101 488.8 101C474 101 459 101 444.2 101C429.3 101 414.7 101 400 101C385.3 101 370.7 101 355.8 101C341 101 326 101 311.2 101C296.3 101 281.7 101 266.8 101C252 101 237 101 222.2 101C207.3 101 192.7 101 177.8 101C163 101 148 101 133.2 101C118.3 101 103.7 101 88.8 101C74 101 59 101 44.2 101C29.3 101 14.7 101 7.3 101L0 101Z" fill="#4f39ccaf" stroke-linecap="round" stroke-linejoin="miter"></path></svg>