<svg id="visual" viewBox="0 0 1200 100" width="1200" height="100" xmlns="http://www.w3.org/2000/svg" xmlns:xlink="http://www.w3.org/1999/xlink" version="1.1"><path d="M0 44L7.3 46.3C14.7 48.7 29.3 53.3 44.2 55.8C59 58.3 74 58.7 88.8 55C103.7 51.3 118.3 43.7 133.2 43.5C148 43.3 163 50.7 177.8 52.5C192.7 54.3 207.3 50.7 222.2 47.7C237 44.7 252 42.3 266.8 44.8C281.7 47.3 296.3 54.7 311.2 57.7C326 60.7 341 59.3 355.8 59.5C370.7 59.7 385.3 61.3 400 60.8C414.7 60.3 429.3 57.7 444.2 58.5C459 59.3 474 63.7 488.8 63.8C503.7 64 518.3 60 533.2 56C548 52 563 48 577.8 44.7C592.7 41.3 607.3 38.7 622.2 41.8C637 45 652 54 666.8 57.8C681.7 61.7 696.3 60.3 711.2 55.2C726 50 741 41 755.8 42.3C770.7 43.7 785.3 55.3 800 59C814.7 62.7 829.3 58.3 844.2 52.8C859 47.3 874 40.7 888.8 40C903.7 39.3 918.3 44.7 933.2 46.8C948 49 963 48 977.8 45.3C992.7 42.7 1007.3 38.3 1022.2 37.2C1037 36 1052 38 1066.8 43.5C1081.7 49 1096.3 58 1111.2 60.8C1126 63.7 1141 60.3 1155.8 56.7C1170.7 53 1185.3 49 1192.7 47L1200 45L1200 101L1192.7 101C1185.3 101 1170.7 101 1155.8 101C1141 101 1126 101 1111.2 101C1096.3 101 1081.7 101 1066.8 101C1052 101 1037 101 1022.2 101C1007.3 101 992.7 101 977.8 101C963 101 948 101 933.2 101C918.3 101 903.7 101 888.8 101C874 101 859 101 844.2 101C829.3 101 814.7 101 800 101C785.3 101 770.7 101 755.8 101C741 101 726 101 711.2 101C696.3 101 681.7 101 666.8 101C652 101 637 101 622.2 101C607.3 101 592.7 101 577.8 101C563 101 548 101 533.2 101C518.3 101 503.7 101 488.8 101C474 101 459 101 444.2 101C429.3 101 414.7 101 400 101C385.3 101 370.7 101 355.8 101C341 101 326 101 311.2 101C296.3 101 281.7 101 266.8 101C252 101 237 101 222.2 101C207.3 101 192.7 101 177.8 101C163 101 148 101 133.2 101C118.3 101 103.7 101 88.8 101C74 101 59 101 44.2 101C29.3 101 14.7 101 7.3 101L0 101Z" fill="#2224ad" stroke-linecap="round" stroke-linejoin="miter"></path></svg>