<svg id="visual" viewBox="0 0 1200 100" width="1200" height="100" xmlns="http://www.w3.org/2000/svg" xmlns:xlink="http://www.w3.org/1999/xlink" version="1.1"><path d="M0 40L10.5 41.3C21 42.7 42 45.3 63 44.3C84 43.3 105 38.7 126 41.7C147 44.7 168 55.3 189.2 61.2C210.3 67 231.7 68 252.8 68.3C274 68.7 295 68.3 316 63C337 57.7 358 47.3 379 47C400 46.7 421 56.3 442 58.8C463 61.3 484 56.7 505 56.8C526 57 547 62 568.2 61.5C589.3 61 610.7 55 631.8 52.3C653 49.7 674 50.3 695 49.7C716 49 737 47 758 50C779 53 800 61 821 60.8C842 60.7 863 52.3 884 48.5C905 44.7 926 45.3 947.2 43.8C968.3 42.3 989.7 38.7 1010.8 41.8C1032 45 1053 55 1074 58C1095 61 1116 57 1137 52C1158 47 1179 41 1189.5 38L1200 35L1200 101L1189.5 101C1179 101 1158 101 1137 101C1116 101 1095 101 1074 101C1053 101 1032 101 1010.8 101C989.7 101 968.3 101 947.2 101C926 101 905 101 884 101C863 101 842 101 821 101C800 101 779 101 758 101C737 101 716 101 695 101C674 101 653 101 631.8 101C610.7 101 589.3 101 568.2 101C547 101 526 101 505 101C484 101 463 101 442 101C421 101 400 101 379 101C358 101 337 101 316 101C295 101 274 101 252.8 101C231.7 101 210.3 101 189.2 101C168 101 147 101 126 101C105 101 84 101 63 101C42 101 21 101 10.5 101L0 101Z" fill="#276daf" stroke-linecap="round" stroke-linejoin="miter"></path></svg>